<?xml version="1.0" encoding="UTF-8"?>
<svg xmlns="http://www.w3.org/2000/svg" xmlns:xlink="http://www.w3.org/1999/xlink" width="375pt" height="374.999991pt" viewBox="0 0 375 374.999991" version="1.2">
<defs>
<clipPath id="clip1">
  <path d="M 0 92.046875 L 295 92.046875 L 295 374.332031 L 0 374.332031 Z M 0 92.046875 "/>
</clipPath>
<clipPath id="clip2">
  <path d="M 235 53 L 374.332031 53 L 374.332031 341 L 235 341 Z M 235 53 "/>
</clipPath>
</defs>
<g id="surface1">
<g clip-path="url(#clip1)" clip-rule="nonzero">
<path style=" stroke:none;fill-rule:nonzero;fill:rgb(62.748718%,10.198975%,49.01886%);fill-opacity:1;" d="M 294.917969 340.433594 C 264.460938 361.886719 227.351562 374.515625 187.257812 374.515625 C 83.839844 374.515625 0 290.679688 0 187.257812 C 0 152.695312 9.410156 120.347656 25.738281 92.558594 L 122.910156 155.289062 C 118.117188 164.921875 115.40625 175.765625 115.40625 187.257812 C 115.40625 226.945312 147.570312 259.113281 187.257812 259.113281 C 205.820312 259.113281 222.734375 252.085938 235.484375 240.535156 L 294.917969 340.433594 "/>
</g>
<path style=" stroke:none;fill-rule:nonzero;fill:rgb(93.728638%,36.468506%,37.649536%);fill-opacity:1;" d="M 317.960938 53.214844 L 239.007812 137.445312 C 225.941406 123.871094 207.589844 115.40625 187.257812 115.40625 C 159.0625 115.40625 134.671875 131.660156 122.910156 155.289062 L 25.738281 92.558594 C 58.265625 37.183594 118.402344 0 187.257812 0 C 238.121094 0 284.222656 20.316406 317.960938 53.214844 "/>
<g clip-path="url(#clip2)" clip-rule="nonzero">
<path style=" stroke:none;fill-rule:nonzero;fill:rgb(92.549133%,25.099182%,40.388489%);fill-opacity:1;" d="M 374.515625 187.257812 C 374.515625 250.601562 343.054688 306.542969 294.917969 340.433594 L 235.484375 240.535156 C 250.003906 227.378906 259.113281 208.382812 259.113281 187.257812 C 259.113281 167.917969 251.457031 150.359375 239.007812 137.445312 L 317.960938 53.214844 C 352.839844 87.222656 374.515625 134.703125 374.515625 187.257812 "/>
</g>
<path style=" stroke:none;fill-rule:nonzero;fill:rgb(19.219971%,9.408569%,27.839661%);fill-opacity:1;" d="M 187.5 73.269531 C 185.628906 73.269531 183.761719 73.316406 181.894531 73.40625 C 180.027344 73.5 178.164062 73.636719 176.304688 73.820312 C 174.441406 74.003906 172.589844 74.230469 170.738281 74.507812 C 168.890625 74.78125 167.046875 75.101562 165.214844 75.464844 C 163.382812 75.828125 161.558594 76.238281 159.746094 76.691406 C 157.929688 77.148438 156.128906 77.644531 154.339844 78.1875 C 152.550781 78.730469 150.777344 79.316406 149.015625 79.945312 C 147.257812 80.578125 145.511719 81.25 143.785156 81.964844 C 142.058594 82.679688 140.351562 83.4375 138.660156 84.238281 C 136.96875 85.035156 135.300781 85.875 133.652344 86.757812 C 132.003906 87.640625 130.378906 88.558594 128.773438 89.519531 C 127.171875 90.484375 125.589844 91.480469 124.035156 92.519531 C 122.484375 93.558594 120.953125 94.636719 119.453125 95.75 C 117.953125 96.863281 116.476562 98.011719 115.03125 99.199219 C 113.589844 100.386719 112.171875 101.605469 110.789062 102.859375 C 109.402344 104.117188 108.050781 105.40625 106.726562 106.726562 C 105.40625 108.050781 104.117188 109.402344 102.859375 110.789062 C 101.605469 112.171875 100.386719 113.589844 99.199219 115.03125 C 98.011719 116.476562 96.863281 117.953125 95.75 119.453125 C 94.636719 120.953125 93.558594 122.484375 92.519531 124.035156 C 91.480469 125.589844 90.484375 127.171875 89.519531 128.773438 C 88.558594 130.378906 87.640625 132.003906 86.757812 133.652344 C 85.875 135.300781 85.035156 136.96875 84.238281 138.660156 C 83.4375 140.351562 82.679688 142.058594 81.964844 143.785156 C 81.25 145.511719 80.578125 147.257812 79.945312 149.015625 C 79.316406 150.777344 78.730469 152.550781 78.1875 154.339844 C 77.644531 156.128906 77.148438 157.929688 76.691406 159.746094 C 76.238281 161.558594 75.828125 163.382812 75.464844 165.214844 C 75.101562 167.046875 74.78125 168.890625 74.507812 170.738281 C 74.230469 172.589844 74.003906 174.441406 73.820312 176.304688 C 73.636719 178.164062 73.5 180.027344 73.40625 181.894531 C 73.316406 183.761719 73.269531 185.628906 73.269531 187.5 C 73.269531 189.371094 73.316406 191.238281 73.40625 193.105469 C 73.5 194.972656 73.636719 196.835938 73.820312 198.695312 C 74.003906 200.558594 74.230469 202.410156 74.507812 204.261719 C 74.78125 206.109375 75.101562 207.953125 75.464844 209.785156 C 75.828125 211.617188 76.238281 213.441406 76.691406 215.253906 C 77.148438 217.070312 77.644531 218.871094 78.1875 220.660156 C 78.730469 222.449219 79.316406 224.222656 79.945312 225.984375 C 80.578125 227.742188 81.25 229.488281 81.964844 231.214844 C 82.679688 232.941406 83.4375 234.648438 84.238281 236.339844 C 85.035156 238.03125 85.875 239.699219 86.757812 241.347656 C 87.640625 242.996094 88.558594 244.621094 89.519531 246.226562 C 90.484375 247.828125 91.480469 249.410156 92.519531 250.964844 C 93.558594 252.515625 94.636719 254.046875 95.75 255.546875 C 96.863281 257.046875 98.011719 258.523438 99.199219 259.96875 C 100.386719 261.410156 101.605469 262.828125 102.859375 264.210938 C 104.117188 265.597656 105.40625 266.949219 106.726562 268.273438 C 108.050781 269.59375 109.402344 270.882812 110.789062 272.140625 C 112.171875 273.394531 113.589844 274.613281 115.03125 275.800781 C 116.476562 276.988281 117.953125 278.136719 119.453125 279.25 C 120.953125 280.363281 122.484375 281.441406 124.035156 282.480469 C 125.589844 283.515625 127.171875 284.515625 128.773438 285.480469 C 130.378906 286.441406 132.003906 287.359375 133.652344 288.242188 C 135.300781 289.125 136.96875 289.964844 138.660156 290.761719 C 140.351562 291.5625 142.058594 292.320312 143.785156 293.035156 C 145.511719 293.75 147.257812 294.421875 149.015625 295.054688 C 150.777344 295.683594 152.550781 296.269531 154.339844 296.8125 C 156.128906 297.355469 157.929688 297.851562 159.746094 298.308594 C 161.558594 298.761719 163.382812 299.171875 165.214844 299.535156 C 167.046875 299.898438 168.890625 300.21875 170.738281 300.492188 C 172.589844 300.769531 174.441406 300.996094 176.304688 301.179688 C 178.164062 301.363281 180.027344 301.5 181.894531 301.59375 C 183.761719 301.683594 185.628906 301.730469 187.5 301.730469 C 189.371094 301.730469 191.238281 301.683594 193.105469 301.59375 C 194.972656 301.5 196.835938 301.363281 198.695312 301.179688 C 200.558594 300.996094 202.410156 300.769531 204.261719 300.492188 C 206.109375 300.21875 207.953125 299.898438 209.785156 299.535156 C 211.617188 299.171875 213.441406 298.761719 215.253906 298.308594 C 217.070312 297.851562 218.871094 297.355469 220.660156 296.8125 C 222.449219 296.269531 224.222656 295.683594 225.984375 295.054688 C 227.742188 294.421875 229.488281 293.75 231.214844 293.035156 C 232.941406 292.320312 234.648438 291.5625 236.339844 290.761719 C 238.03125 289.964844 239.699219 289.125 241.347656 288.242188 C 242.996094 287.359375 244.621094 286.441406 246.226562 285.476562 C 247.828125 284.515625 249.410156 283.515625 250.964844 282.480469 C 252.515625 281.441406 254.046875 280.363281 255.546875 279.25 C 257.046875 278.136719 258.523438 276.988281 259.96875 275.800781 C 261.410156 274.613281 262.828125 273.394531 264.210938 272.140625 C 265.597656 270.882812 266.949219 269.59375 268.273438 268.273438 C 269.59375 266.949219 270.882812 265.597656 272.140625 264.210938 C 273.394531 262.828125 274.613281 261.410156 275.800781 259.96875 C 276.988281 258.523438 278.136719 257.046875 279.25 255.546875 C 280.363281 254.046875 281.441406 252.515625 282.480469 250.964844 C 283.515625 249.410156 284.515625 247.828125 285.480469 246.226562 C 286.441406 244.621094 287.359375 242.996094 288.242188 241.347656 C 289.125 239.699219 289.964844 238.03125 290.761719 236.339844 C 291.5625 234.648438 292.320312 232.941406 293.035156 231.214844 C 293.75 229.488281 294.421875 227.742188 295.054688 225.984375 C 295.683594 224.222656 296.269531 222.449219 296.8125 220.660156 C 297.355469 218.871094 297.851562 217.070312 298.308594 215.253906 C 298.761719 213.441406 299.171875 211.617188 299.535156 209.785156 C 299.898438 207.953125 300.21875 206.109375 300.492188 204.261719 C 300.769531 202.410156 300.996094 200.558594 301.179688 198.695312 C 301.363281 196.835938 301.5 194.972656 301.59375 193.105469 C 301.683594 191.238281 301.730469 189.371094 301.730469 187.5 C 301.730469 185.628906 301.683594 183.761719 301.59375 181.894531 C 301.5 180.027344 301.363281 178.164062 301.179688 176.304688 C 300.996094 174.441406 300.769531 172.589844 300.492188 170.738281 C 300.21875 168.890625 299.898438 167.046875 299.535156 165.214844 C 299.171875 163.382812 298.761719 161.558594 298.308594 159.746094 C 297.851562 157.929688 297.355469 156.128906 296.8125 154.339844 C 296.269531 152.550781 295.683594 150.777344 295.054688 149.015625 C 294.421875 147.257812 293.75 145.511719 293.035156 143.785156 C 292.320312 142.058594 291.5625 140.351562 290.761719 138.660156 C 289.964844 136.96875 289.125 135.300781 288.242188 133.652344 C 287.359375 132.003906 286.441406 130.378906 285.476562 128.773438 C 284.515625 127.171875 283.515625 125.589844 282.480469 124.035156 C 281.441406 122.484375 280.363281 120.953125 279.25 119.453125 C 278.136719 117.953125 276.988281 116.476562 275.800781 115.03125 C 274.613281 113.589844 273.394531 112.171875 272.140625 110.789062 C 270.882812 109.402344 269.59375 108.050781 268.273438 106.726562 C 266.949219 105.40625 265.597656 104.117188 264.210938 102.859375 C 262.828125 101.605469 261.410156 100.386719 259.96875 99.199219 C 258.523438 98.011719 257.046875 96.863281 255.546875 95.75 C 254.046875 94.636719 252.515625 93.558594 250.964844 92.519531 C 249.410156 91.480469 247.828125 90.484375 246.226562 89.519531 C 244.621094 88.558594 242.996094 87.640625 241.347656 86.757812 C 239.699219 85.875 238.03125 85.035156 236.339844 84.238281 C 234.648438 83.4375 232.941406 82.679688 231.214844 81.964844 C 229.488281 81.25 227.742188 80.578125 225.984375 79.945312 C 224.222656 79.316406 222.449219 78.730469 220.660156 78.1875 C 218.871094 77.644531 217.070312 77.148438 215.253906 76.691406 C 213.441406 76.238281 211.617188 75.828125 209.785156 75.464844 C 207.953125 75.101562 206.109375 74.78125 204.261719 74.507812 C 202.410156 74.230469 200.558594 74.003906 198.695312 73.820312 C 196.835938 73.636719 194.972656 73.5 193.105469 73.40625 C 191.238281 73.316406 189.371094 73.269531 187.5 73.269531 Z M 187.5 73.269531 "/>
</g>
</svg>
