<?xml version="1.0" encoding="UTF-8"?>
<svg xmlns="http://www.w3.org/2000/svg" xmlns:xlink="http://www.w3.org/1999/xlink" width="375pt" height="374.999991pt" viewBox="0 0 375 374.999991" version="1.2">
<defs>
<clipPath id="clip1">
  <path d="M 20 1 L 342 1 L 342 150 L 20 150 Z M 20 1 "/>
</clipPath>
<clipPath id="clip2">
  <path d="M 237.675781 -71.742188 L 445.589844 238.539062 L 135.3125 446.453125 L -72.605469 136.175781 Z M 237.675781 -71.742188 "/>
</clipPath>
<clipPath id="clip3">
  <path d="M 223.539062 -92.835938 L 445.648438 238.625 L 114.1875 460.738281 L -107.925781 129.273438 Z M 223.539062 -92.835938 "/>
</clipPath>
<clipPath id="clip4">
  <path d="M 0 105 L 200 105 L 200 374 L 0 374 Z M 0 105 "/>
</clipPath>
<clipPath id="clip5">
  <path d="M 237.675781 -71.742188 L 445.589844 238.539062 L 135.3125 446.453125 L -72.605469 136.175781 Z M 237.675781 -71.742188 "/>
</clipPath>
<clipPath id="clip6">
  <path d="M 223.539062 -92.835938 L 445.648438 238.625 L 114.1875 460.738281 L -107.925781 129.273438 Z M 223.539062 -92.835938 "/>
</clipPath>
<clipPath id="clip7">
  <path d="M 193 83 L 374 83 L 374 374 L 193 374 Z M 193 83 "/>
</clipPath>
<clipPath id="clip8">
  <path d="M 237.675781 -71.742188 L 445.589844 238.539062 L 135.3125 446.453125 L -72.605469 136.175781 Z M 237.675781 -71.742188 "/>
</clipPath>
<clipPath id="clip9">
  <path d="M 223.539062 -92.835938 L 445.648438 238.625 L 114.1875 460.738281 L -107.925781 129.273438 Z M 223.539062 -92.835938 "/>
</clipPath>
</defs>
<g id="surface1">
<g clip-path="url(#clip1)" clip-rule="nonzero">
<g clip-path="url(#clip2)" clip-rule="nonzero">
<g clip-path="url(#clip3)" clip-rule="nonzero">
<path style=" stroke:none;fill-rule:nonzero;fill:rgb(93.728638%,36.468506%,37.649536%);fill-opacity:1;" d="M 259.390625 139.207031 C 259.394531 139.210938 259.394531 139.210938 259.398438 139.214844 L 341.964844 83.886719 C 322.898438 55.429688 300.136719 35.527344 269.390625 20.417969 C 177.074219 -24.957031 65.453125 13.097656 20.074219 105.417969 L 109.296875 149.269531 C 115.796875 136.011719 125.695312 124.203125 138.84375 115.390625 C 178.707031 88.679688 232.679688 99.34375 259.390625 139.207031 "/>
</g>
</g>
</g>
<g clip-path="url(#clip4)" clip-rule="nonzero">
<g clip-path="url(#clip5)" clip-rule="nonzero">
<g clip-path="url(#clip6)" clip-rule="nonzero">
<path style=" stroke:none;fill-rule:nonzero;fill:rgb(62.748718%,10.198975%,49.01886%);fill-opacity:1;" d="M 115.03125 235.941406 C 97.132812 209.226562 96.089844 176.207031 109.296875 149.269531 L 20.070312 105.417969 C 4.957031 136.160156 -0.902344 165.828125 1.382812 200.003906 C 8.25 302.640625 97.015625 380.285156 199.660156 373.421875 L 193.027344 274.195312 C 163.082031 276.171875 132.9375 262.660156 115.03125 235.941406 "/>
</g>
</g>
</g>
<g clip-path="url(#clip7)" clip-rule="nonzero">
<g clip-path="url(#clip8)" clip-rule="nonzero">
<g clip-path="url(#clip9)" clip-rule="nonzero">
<path style=" stroke:none;fill-rule:nonzero;fill:rgb(92.549133%,25.099182%,40.388489%);fill-opacity:1;" d="M 290.917969 342.308594 C 376.375 285.046875 399.230469 169.34375 341.964844 83.886719 L 259.398438 139.214844 C 286.101562 179.078125 275.4375 233.046875 235.582031 259.753906 C 222.4375 268.5625 207.753906 273.226562 193.027344 274.195312 L 199.664062 373.425781 C 233.835938 371.136719 262.464844 361.375 290.917969 342.308594 "/>
</g>
</g>
</g>
</g>
</svg>
